<svg xmlns="http://www.w3.org/2000/svg" viewBox="0 0 200 140">
  <!-- Left rainbow -->
  <path d="M20 120 A 40 80 0 0 1 60 40 A 40 80 0 0 1 100 120" fill="none" stroke="#2196F3" stroke-width="12" stroke-linecap="round"/>
  <path d="M30 120 A 30 60 0 0 1 60 60 A 30 60 0 0 1 90 120" fill="none" stroke="#4CAF50" stroke-width="12" stroke-linecap="round"/>
  <path d="M40 120 A 20 40 0 0 1 60 80 A 20 40 0 0 1 80 120" fill="none" stroke="#FFC107" stroke-width="12" stroke-linecap="round"/>
  
  <!-- Right rainbow -->
  <path d="M100 120 A 40 80 0 0 1 140 40 A 40 80 0 0 1 180 120" fill="none" stroke="#FF5722" stroke-width="12" stroke-linecap="round"/>
  <path d="M110 120 A 30 60 0 0 1 140 60 A 30 60 0 0 1 170 120" fill="none" stroke="#FF9800" stroke-width="12" stroke-linecap="round"/>
  <path d="M120 120 A 20 40 0 0 1 140 80 A 20 40 0 0 1 160 120" fill="none" stroke="#9C27B0" stroke-width="12" stroke-linecap="round"/>
</svg>